<svg width="143" height="28" viewBox="0 0 143 28" fill="none" xmlns="http://www.w3.org/2000/svg">
    <path d="M10.1776 22.7256C7.25017 22.7256 4.73312 20.7716 4.73312 17.0836C4.73312 13.7259 7.05865 11.3866 10.2323 11.3866C11.5182 11.3866 12.9135 11.9095 14.0352 12.9278L17.0174 9.76282C14.9654 7.69869 12.8588 6.92807 10.1229 6.92807C4.62369 6.92807 0 10.2307 0 17.0836C0 23.9091 4.62369 27.2393 10.1229 27.2393C12.9409 27.2393 15.2664 26.3585 17.4825 24.1843L14.3636 21.0469C13.1597 22.2577 11.6824 22.7256 10.1776 22.7256Z" fill="white"></path>
    <path d="M86.7555 22.8612C85.2508 22.8612 84.2932 21.9805 84.2932 20.109V11.8524H86.908C88.3952 11.8524 89.6009 10.6397 89.6009 9.14359V7.75165H84.3479V1.80692L79.6147 2.7977V20.1916C79.6147 24.9529 82.3507 27.3197 86.4545 27.2372C87.9046 27.1822 89.0263 26.9895 90.3668 26.4116L89.0263 22.3108C88.315 22.6685 87.4668 22.8612 86.7555 22.8612Z" fill="white"></path>
    <path d="M25.3887 9.92798L25.0879 7.69866H20.7103V26.9089H25.3887V16.7534C25.3887 13.2306 27.7143 11.882 30.1766 11.882C31.7087 11.882 32.5842 12.3499 33.5692 13.1205L35.6758 8.99219C34.6361 7.94636 32.7483 7.17575 30.7785 7.17575C28.836 7.20327 26.8662 7.56105 25.3887 9.92798Z" fill="white"></path>
    <path d="M75.5661 13.2824C75.0736 12.0439 74.3349 10.9155 73.3773 9.95222C72.4744 8.98899 71.2981 8.21838 70.1216 7.7505C68.8905 7.22759 67.5772 6.97989 66.2366 6.97989C62.0233 6.97989 59.0411 10.0624 56.3326 13.5026L56.2779 13.5851C56.2779 13.5851 56.1958 13.6953 56.1411 13.7503L53.5967 17.0805C52.5297 18.5116 51.3532 19.9703 50.0947 21.1261C48.8636 22.2546 47.5229 23.0527 46.1824 23.0802C45.3889 23.0802 44.6229 22.9151 43.939 22.6399C43.2276 22.3371 42.5983 21.8968 42.0512 21.3463C41.504 20.7959 41.0662 20.1353 40.82 19.4474C40.5464 18.7318 40.3823 17.9336 40.3823 17.218C40.3823 15.6218 40.9841 14.1631 42.1059 13.0347C43.2003 11.9339 44.705 11.3008 46.2644 11.3008H46.2918C47.0852 11.3008 47.8513 11.4385 48.5626 11.6862L48.086 12.2552C46.9246 13.6417 47.1154 15.7159 48.5098 16.8646L49.1482 17.3906L54.5269 10.8054C53.8976 10.0073 52.9127 9.07156 51.8731 8.43856C49.9853 7.25511 47.7692 6.81476 45.5805 6.95237C43.0635 7.17255 40.7105 8.30094 38.987 10.1449C37.2633 11.9889 36.251 14.3833 36.1963 16.9153C36.1963 18.2639 36.4426 19.5849 36.935 20.8234C37.4275 22.0619 38.1661 23.1903 39.1238 24.1536C40.0266 25.1169 41.203 25.8875 42.3795 26.3553C43.6106 26.8782 44.9239 27.1259 46.2644 27.1259C50.4778 27.1259 53.4599 24.0435 56.1411 20.6032L56.1958 20.5207C56.1958 20.5207 56.2779 20.4106 56.3326 20.3555L58.877 17.0254C59.944 15.5943 61.1204 14.1356 62.379 12.9797C63.6101 11.8512 64.9507 11.0531 66.2913 11.0256C67.0847 11.0256 67.8508 11.1908 68.5347 11.466C69.2461 11.7687 69.8754 12.2091 70.4226 12.7595C70.9697 13.3099 71.4075 13.9705 71.6537 14.6585C71.9273 15.3741 72.0914 16.1722 72.0914 16.8878C72.0914 18.4841 71.4895 19.9428 70.3678 21.0711C69.5197 21.9243 68.4527 22.5023 67.2762 22.7224C66.8385 22.805 66.3734 22.8601 65.9083 22.8601C63.6922 22.8601 61.7223 21.8692 60.4091 20.3005L58.0288 23.2178C58.6581 24.0159 59.6431 24.9517 60.6827 25.5847C62.5978 26.7682 64.7866 27.2085 67.0027 27.0709C68.8631 26.9333 70.6414 26.2452 72.1462 25.1444C72.4762 26.3012 73.5279 27.0984 74.7244 27.0984H76.3868V17.3667C76.3868 16.3938 76.0311 14.4934 75.5661 13.2824Z" fill="white"></path>
    <path d="M133.233 6.87299C126.995 6.87299 123.11 11.1114 123.11 16.9735C123.11 23.1384 127.023 27.2117 133.616 27.2117C136.489 27.2117 139.854 26.1659 141.852 24.1017L138.815 21.1018C137.748 22.2302 135.477 22.8632 133.726 22.8632C131.925 22.8632 130.478 22.3496 129.492 21.4903C128.243 20.4653 127.559 18.8893 127.559 16.9514C127.559 15.0711 128.266 13.4835 129.524 12.4533C130.525 11.5771 131.884 11.1389 133.397 11.1389C136.134 11.1389 138.076 12.3774 138.349 14.8543H137.957C135.875 14.8543 134.187 16.5523 134.187 18.6467V18.7583C134.187 18.7597 134.187 18.7611 134.187 18.7624H142.919C143.63 10.8637 139.608 6.87299 133.233 6.87299Z" fill="white"></path>
    <path d="M98.3276 0V4.7622H93.5952V0.990792L98.3276 0Z" fill="white"></path>
    <path d="M93.5952 7.63568H98.3285V26.9286H93.5952V7.63568Z" fill="white"></path>
    <path d="M113.543 18.5621L115.208 14.0483L117.807 7.63568H122.978L114.825 26.9286H109.681L101.556 7.63568H106.699L109.326 13.9382L111.818 20.8522V23.268L113.543 18.5621Z" fill="white"></path>
</svg>